<?xml version="1.0" encoding="utf-8"?>
<svg viewBox="-77.21 315.165 600 202.1" width="600" height="202.1" xmlns="http://www.w3.org/2000/svg">
  <path d="M 159.29 353.165 L 159.29 454.965 L 172.39 455.065 L 172.39 406.565 L 203.99 406.565 L 203.99 393.765 L 172.39 393.765 L 172.39 365.965 L 213.49 365.965 L 213.49 353.165 L 159.29 353.165 Z M 237.09 373.865 C 241.79 373.865 245.69 370.065 245.69 365.265 C 245.69 360.465 241.89 356.665 237.09 356.665 C 232.39 356.665 228.49 360.465 228.49 365.265 C 228.49 370.065 232.29 373.865 237.09 373.865 L 237.09 373.865 Z M 230.39 386.665 L 230.39 455.065 L 243.49 455.065 L 243.49 386.665 L 230.39 386.665 Z M 292.09 384.665 C 274.69 384.665 262.59 399.365 262.59 416.865 C 262.59 434.365 274.69 449.065 292.09 449.065 C 300.09 449.065 306.59 446.065 311.39 440.965 L 311.39 450.065 C 311.49 461.365 302.49 470.765 291.09 470.865 C 290.99 470.865 290.99 470.865 290.89 470.865 C 286.69 470.865 282.59 469.265 279.29 466.965 L 272.69 478.365 C 288.29 488.465 309.09 483.965 319.09 468.365 C 322.59 462.865 324.49 456.565 324.49 450.065 L 324.49 386.765 L 311.39 386.765 L 311.39 392.865 C 306.59 387.765 300.09 384.665 292.09 384.665 L 292.09 384.665 Z M 275.69 416.865 C 275.69 405.965 283.99 397.465 293.59 397.465 C 303.19 397.465 311.39 406.065 311.39 416.865 C 311.39 427.765 303.09 436.165 293.59 436.165 C 283.99 436.165 275.69 427.665 275.69 416.865 Z M 371.69 397.465 C 363.89 397.565 357.59 403.965 357.69 411.765 L 357.69 454.965 L 344.59 454.965 L 344.59 386.565 L 357.69 386.565 L 357.69 392.865 C 361.69 387.565 367.89 384.565 374.59 384.665 C 383.79 384.665 390.89 389.165 394.89 396.165 C 399.49 389.065 407.29 384.765 415.69 384.665 C 430.59 384.665 439.89 396.665 439.89 411.565 L 439.89 454.965 L 426.89 454.965 L 426.89 411.765 C 426.89 403.965 420.69 397.565 412.89 397.465 C 405.09 397.565 398.79 403.965 398.89 411.765 L 398.89 454.965 L 385.69 454.965 L 385.69 411.765 C 385.69 403.965 379.49 397.565 371.69 397.465 L 371.69 397.465 Z M 509.69 394.365 C 503.69 388.065 495.29 384.565 486.59 384.665 C 467.09 384.665 453.29 401.165 453.29 420.765 C 453.29 440.465 467.09 456.865 486.59 456.865 C 495.29 456.865 503.59 453.365 509.69 447.165 L 509.69 454.965 L 522.79 454.965 L 522.79 386.565 L 509.69 386.565 L 509.69 394.365 L 509.69 394.365 Z M 466.39 420.765 C 466.39 407.765 476.39 397.365 488.09 397.365 C 499.69 397.465 509.69 407.765 509.69 420.765 C 509.69 433.765 499.69 444.065 487.99 444.065 C 476.49 444.165 466.39 433.865 466.39 420.765 Z"/>
  <path id="b" class="st0" d="M -9.91 416.265 C -9.91 397.665 5.19 382.565 23.79 382.565 C 42.39 382.565 57.49 397.665 57.49 416.265 C 57.49 434.865 42.39 449.965 23.79 449.965 C 5.19 449.965 -9.91 434.865 -9.91 416.265 Z" style="fill: rgb(26, 188, 254);"/>
  <path id="c" class="st1" d="M -77.21 483.565 C -77.21 464.965 -62.11 449.865 -43.51 449.865 L -9.81 449.865 L -9.81 483.565 C -9.81 502.165 -24.91 517.265 -43.51 517.265 C -62.11 517.265 -77.21 502.165 -77.21 483.565 Z" style="fill: rgb(10, 207, 131);"/>
  <path id="d" class="st2" d="M -9.91 315.265 L -9.91 382.565 L 23.79 382.565 C 42.39 382.565 57.49 367.465 57.49 348.865 C 57.49 330.265 42.39 315.165 23.79 315.165 L -9.91 315.165 Z" style="fill: rgb(255, 114, 98);"/>
  <path id="e" class="st3" d="M -77.21 348.965 C -77.21 367.565 -62.11 382.665 -43.51 382.665 L -9.81 382.665 L -9.81 315.365 L -43.51 315.365 C -62.11 315.265 -77.21 330.365 -77.21 348.965 Z" style="fill: rgb(242, 78, 30);"/>
  <path id="e_1_" class="st4" d="M -77.21 416.265 C -77.21 434.865 -62.11 449.965 -43.51 449.965 L -9.81 449.965 L -9.81 382.665 L -43.51 382.665 C -62.11 382.565 -77.21 397.665 -77.21 416.265 Z" style="fill: rgb(162, 89, 255);"/>
</svg>