<?xml version="1.0" encoding="utf-8"?>
<!-- Generator: Adobe Illustrator 25.3.1, SVG Export Plug-In . SVG Version: 6.00 Build 0)  -->
<svg version="1.1" id="Layer_1" xmlns="http://www.w3.org/2000/svg" xmlns:xlink="http://www.w3.org/1999/xlink" x="0px" y="0px"
	 viewBox="0 0 176 51" style="enable-background:new 0 0 176 51;" xml:space="preserve">
<style type="text/css">
	.st0{fill-rule:evenodd;clip-rule:evenodd;}
</style>
<path class="st0" d="M67.1,11.7v22.9h8.4v4H62.6V11.7H67.1z M91.1,23.1v-2.4h4.2v17.9h-4.2v-2.4c-0.6,0.9-1.4,1.6-2.4,2.1
	c-1,0.5-2.1,0.8-3.2,0.8c-1.4,0-2.6-0.2-3.8-0.7c-1.1-0.5-2.1-1.2-2.9-2.1c-0.8-0.9-1.5-1.9-1.9-3c-0.5-1.1-0.7-2.4-0.7-3.6
	c0-1.3,0.2-2.5,0.7-3.6c0.4-1.1,1.1-2.1,1.9-3c0.8-0.9,1.8-1.6,2.9-2.1c1.1-0.5,2.4-0.8,3.8-0.8c1.1,0,2.1,0.3,3.2,0.8
	C89.8,21.5,90.6,22.2,91.1,23.1z M90.7,31.9c0.3-0.7,0.4-1.4,0.4-2.2c0-0.8-0.1-1.5-0.4-2.2c-0.2-0.7-0.6-1.3-1.1-1.8
	c-0.5-0.5-1-0.9-1.7-1.2c-0.7-0.3-1.4-0.5-2.2-0.5s-1.5,0.2-2.2,0.5c-0.6,0.3-1.2,0.7-1.7,1.2c-0.5,0.5-0.8,1.1-1.1,1.8
	c-0.2,0.7-0.4,1.4-0.4,2.2c0,0.8,0.1,1.5,0.4,2.2c0.2,0.7,0.6,1.3,1.1,1.8c0.5,0.5,1,0.9,1.7,1.2c0.6,0.3,1.4,0.5,2.2,0.5
	s1.5-0.2,2.2-0.5c0.6-0.3,1.2-0.7,1.7-1.2C90.1,33.1,90.5,32.5,90.7,31.9z M98.7,38.6V20.7h11.5v4.1h-7.2v13.8H98.7z M125.4,23.1
	v-2.4h4.2v17.9h-4.2v-2.4c-0.6,0.9-1.4,1.6-2.4,2.1c-1,0.5-2.1,0.8-3.2,0.8c-1.4,0-2.6-0.2-3.8-0.7c-1.1-0.5-2.1-1.2-2.9-2.1
	c-0.8-0.9-1.5-1.9-1.9-3c-0.5-1.1-0.7-2.4-0.7-3.6c0-1.3,0.2-2.5,0.7-3.6c0.4-1.1,1.1-2.1,1.9-3c0.8-0.9,1.8-1.6,2.9-2.1
	c1.1-0.5,2.4-0.8,3.8-0.8c1.1,0,2.1,0.3,3.2,0.8C124.1,21.5,124.9,22.2,125.4,23.1z M125,31.9c0.3-0.7,0.4-1.4,0.4-2.2
	c0-0.8-0.1-1.5-0.4-2.2c-0.2-0.7-0.6-1.3-1.1-1.8c-0.5-0.5-1-0.9-1.7-1.2c-0.7-0.3-1.4-0.5-2.2-0.5c-0.8,0-1.5,0.2-2.2,0.5
	c-0.6,0.3-1.2,0.7-1.7,1.2c-0.5,0.5-0.8,1.1-1.1,1.8c-0.2,0.7-0.4,1.4-0.4,2.2c0,0.8,0.1,1.5,0.4,2.2c0.2,0.7,0.6,1.3,1.1,1.8
	c0.5,0.5,1,0.9,1.7,1.2c0.6,0.3,1.4,0.5,2.2,0.5s1.5-0.2,2.2-0.5c0.6-0.3,1.2-0.7,1.7-1.2C124.4,33.1,124.8,32.5,125,31.9z
	 M146.6,20.7h4.3l-6.9,17.9h-5.3l-6.9-17.9h4.3l5.3,13.7L146.6,20.7z M160,20.3c5.7,0,9.7,5.1,8.9,11h-14c0,1.5,1.6,4.5,5.3,4.5
	c3.2,0,5.4-2.8,5.4-2.8l2.9,2.2c-2.5,2.7-4.6,3.9-7.9,3.9c-5.8,0-9.8-3.7-9.8-9.4C150.8,24.5,154.9,20.3,160,20.3z M155,28.1h10.1
	c0-0.3-0.6-4.5-5.1-4.5S155,27.8,155,28.1z M171.7,38.6V11.7h4.2v26.9H171.7z M49.8,11.5c0,0.1,0,0.1,0,0.2v10.9
	c0,0.3-0.2,0.5-0.4,0.7l-9.2,5.3v10.5c0,0.3-0.2,0.5-0.4,0.7l-19.3,11c0,0-0.1,0-0.1,0.1c0,0,0,0-0.1,0c-0.1,0-0.3,0-0.4,0
	c0,0,0,0-0.1,0c0,0-0.1,0-0.1-0.1l-19.3-11C0.2,39.6,0,39.4,0,39.1V6.3c0-0.1,0-0.1,0-0.2c0,0,0,0,0-0.1c0,0,0-0.1,0.1-0.1
	c0,0,0,0,0.1-0.1c0,0,0-0.1,0.1-0.1c0,0,0.1,0,0.1-0.1c0,0,0.1,0,0.1-0.1l0,0L10,0.1c0.2-0.1,0.6-0.1,0.8,0l9.6,5.5h0
	c0,0,0.1,0,0.1,0.1c0,0,0.1,0,0.1,0.1c0,0,0,0.1,0.1,0.1c0,0,0,0,0.1,0.1c0,0,0,0.1,0.1,0.1c0,0,0,0,0,0.1c0,0.1,0,0.1,0,0.2v20.5
	l8-4.6V11.7c0-0.1,0-0.1,0-0.2c0,0,0,0,0-0.1c0,0,0-0.1,0.1-0.1c0,0,0,0,0.1-0.1c0,0,0-0.1,0.1-0.1c0,0,0.1,0,0.1-0.1
	c0,0,0.1-0.1,0.1-0.1v0L39,5.5c0.2-0.1,0.6-0.1,0.8,0l9.6,5.5h0c0,0,0.1,0,0.1,0.1c0,0,0.1,0,0.1,0.1c0,0,0,0.1,0.1,0.1
	c0,0,0,0,0.1,0.1C49.7,11.4,49.7,11.4,49.8,11.5C49.7,11.5,49.8,11.5,49.8,11.5z M48.2,22.2v-9.1L44.8,15l-4.7,2.7v9.1L48.2,22.2
	L48.2,22.2z M38.5,38.6v-9.1L34,32.1l-13.1,7.4v9.2L38.5,38.6L38.5,38.6z M1.6,7.7v30.9l17.7,10.1v-9.2L10,34.4l0,0l0,0
	c0,0-0.1,0-0.1-0.1c0,0-0.1,0-0.1-0.1l0,0c0,0,0-0.1-0.1-0.1c0,0,0,0-0.1-0.1l0,0c0,0,0-0.1,0-0.1c0,0,0-0.1,0-0.1v0
	c0,0,0-0.1,0-0.1c0,0,0-0.1,0-0.1V12.3L5,9.6L1.6,7.7z M10.4,1.7l-8,4.6l8,4.6l8-4.6C18.5,6.3,10.4,1.7,10.4,1.7z M14.6,30.4
	l4.7-2.7v-20l-3.4,1.9l-4.7,2.7v20C11.2,32.3,14.6,30.4,14.6,30.4z M39.4,7.1l-8,4.6l8,4.6l8-4.6C47.4,11.7,39.4,7.1,39.4,7.1z
	 M38.5,17.7L33.9,15l-3.4-1.9v9.1l4.7,2.7l3.4,1.9V17.7L38.5,17.7z M20.1,38.2l11.8-6.7l5.9-3.3l-8-4.6l-9.2,5.3l-8.4,4.8L20.1,38.2
	z"/>
</svg>
