<?xml version="1.0" encoding="utf-8"?>
<!-- Generator: Adobe Illustrator 25.3.1, SVG Export Plug-In . SVG Version: 6.00 Build 0)  -->
<svg version="1.1" id="svg3030" xmlns:svg="http://www.w3.org/2000/svg"
	 xmlns="http://www.w3.org/2000/svg" xmlns:xlink="http://www.w3.org/1999/xlink" x="0px" y="0px" viewBox="0 0 591 159"
	 style="enable-background:new 0 0 591 159;" xml:space="preserve">
<style type="text/css">
	.st0{fill-rule:evenodd;clip-rule:evenodd;}
	.st1{fill-rule:evenodd;clip-rule:evenodd;fill:#83CD29;}
</style>
<path id="path22" class="st0" d="M298.5,0c-0.4,0-0.8,0.1-1.2,0.3c-0.7,0.4-1.2,1.2-1.2,2.1V63c0,0.6-0.3,1.1-0.8,1.4
	c-0.5,0.3-1.1,0.3-1.7,0l-9.9-5.7c-1.5-0.9-3.3-0.9-4.8,0l-39.6,22.8c-1.5,0.9-2.4,2.5-2.4,4.2v45.7c0,1.7,0.9,3.3,2.4,4.1
	l39.6,22.8c1.5,0.9,3.3,0.9,4.8,0l39.6-22.8c1.5-0.9,2.4-2.4,2.4-4.1V17.6c0-1.7-0.9-3.4-2.5-4.2L299.7,0.2C299.4,0,298.9,0,298.5,0
	L298.5,0z M44.1,57c-0.8,0-1.5,0.2-2.1,0.6L2.4,80.4C0.9,81.2,0,82.8,0,84.5l0.1,61.3c0,0.9,0.4,1.6,1.2,2.1c0.7,0.4,1.6,0.4,2.4,0
	l23.5-13.5c1.5-0.9,2.5-2.4,2.5-4.1v-28.6c0-1.7,0.9-3.3,2.4-4.1l10-5.8c0.7-0.4,1.5-0.6,2.4-0.6c0.8,0,1.7,0.2,2.4,0.6l10,5.8
	c1.5,0.8,2.4,2.4,2.4,4.1v28.6c0,1.7,1,3.2,2.5,4.1L85,147.8c0.7,0.4,1.6,0.4,2.4,0c0.7-0.4,1.2-1.2,1.2-2.1l0.1-61.3
	c0-1.7-0.9-3.3-2.4-4.1L46.7,57.6C46,57.2,45.3,57,44.6,57H44.1L44.1,57z M399.5,57.6c-0.8,0-1.6,0.2-2.4,0.6L357.6,81
	c-1.5,0.9-2.4,2.4-2.4,4.1v45.7c0,1.7,1,3.3,2.5,4.1l39.2,22.4c1.4,0.8,3.2,0.9,4.7,0.1l23.8-13.2c0.8-0.4,1.3-1.2,1.3-2.1
	c0-0.9-0.4-1.6-1.2-2.1l-39.8-22.8c-0.7-0.4-1.3-1.3-1.3-2.1v-14.3c0-0.9,0.5-1.6,1.3-2.1l12.4-7.1c0.7-0.4,1.6-0.4,2.4,0l12.4,7.1
	c0.7,0.4,1.2,1.2,1.2,2.1V112c0,0.9,0.5,1.6,1.2,2.1c0.7,0.4,1.6,0.4,2.4,0l23.7-13.8c1.5-0.9,2.4-2.4,2.4-4.1v-11
	c0-1.7-0.9-3.3-2.4-4.1l-39.3-22.8C401.2,57.8,400.4,57.6,399.5,57.6L399.5,57.6z M281.3,91.6c0.2,0,0.4,0.1,0.6,0.2l13.6,7.8
	c0.4,0.2,0.6,0.6,0.6,1v15.7c0,0.4-0.3,0.8-0.6,1l-13.6,7.8c-0.4,0.2-0.8,0.2-1.2,0l-13.6-7.8c-0.4-0.2-0.6-0.6-0.6-1v-15.7
	c0-0.4,0.3-0.8,0.6-1l13.6-7.8C280.9,91.7,281,91.6,281.3,91.6L281.3,91.6z"/>
<path id="path28" class="st0" d="M518,56.4c-1.4,0-2.7,0.3-3.9,1L476.8,79c-2.4,1.4-3.9,4-3.9,6.8v43c0,2.8,1.5,5.4,3.9,6.8l9.8,5.6
	c4.7,2.3,6.5,2.3,8.6,2.3c7,0,11-4.3,11-11.7V89.4c0-0.6-0.5-1-1.1-1h-4.7c-0.6,0-1.1,0.4-1.1,1v42.5c0,3.3-3.4,6.6-9,3.8l-10.1-5.9
	c-0.4-0.2-0.6-0.5-0.6-1v-43c0-0.4,0.3-0.8,0.6-1l37.3-21.5c0.3-0.2,0.8-0.2,1.1,0l37.3,21.5c0.4,0.2,0.6,0.6,0.6,1v43
	c0,0.4-0.2,0.8-0.6,1l-37.3,21.5c-0.3,0.2-0.8,0.2-1.1,0l-9.6-5.7c-0.3-0.2-0.7-0.2-1,0c-2.6,1.5-3.1,1.7-5.6,2.5
	c-0.6,0.2-1.5,0.5,0.3,1.6l12.5,7.4c1.2,0.7,2.5,1,3.9,1c1.4,0,2.7-0.3,3.9-1l37.3-21.5c2.4-1.4,3.9-4,3.9-6.8v-43
	c0-2.8-1.5-5.4-3.9-6.8l-37.3-21.6C520.8,56.7,519.4,56.4,518,56.4L518,56.4z M573.4,57.6v1.1h3.1v8.2h1.3v-8.2h3.2v-1.1H573.4z
	 M582.1,57.6v9.3h1.2v-5.5c0-0.2,0-0.6,0-1c0-0.5,0-0.9,0-1.1V59l2.6,7.8h1.3l2.7-7.8c0,0.5-0.1,1-0.1,1.4c0,0.4,0,0.8,0,1v5.5h1.2
	v-9.3h-1.7l-2.7,7.8l-2.6-7.8L582.1,57.6L582.1,57.6z M528,87.2c-10.6,0-17,4.5-17,12c0,8.2,6.3,10.4,16.5,11.4
	c12.2,1.2,13.2,3,13.2,5.4c0,4.2-3.3,5.9-11.2,5.9c-9.9,0-12-2.5-12.8-7.4c-0.1-0.5-0.5-1-1-1h-4.8c-0.6,0-1.1,0.5-1.1,1.1
	c0,6.3,3.4,13.7,19.7,13.7c11.8,0,18.6-4.6,18.6-12.8c0-8.1-5.5-10.2-17-11.7c-11.6-1.5-12.7-2.3-12.7-5c0-2.2,0.9-5.2,9.5-5.2
	c7.7,0,10.5,1.7,11.7,6.8c0.1,0.5,0.5,0.9,1,0.9h4.8c0.3,0,0.6-0.2,0.8-0.4c0.2-0.2,0.3-0.5,0.3-0.8C545.9,91.4,540,87.2,528,87.2
	L528,87.2z M399.4,98.1c-0.2,0-0.3,0-0.5,0.1l-7.6,4.4c-0.3,0.2-0.5,0.5-0.5,0.8v8.7c0,0.3,0.2,0.6,0.5,0.8l7.6,4.4
	c0.3,0.2,0.6,0.2,0.9,0l7.6-4.4c0.3-0.2,0.5-0.5,0.5-0.8v-8.7c0-0.3-0.2-0.6-0.5-0.8l-7.6-4.4C399.7,98.1,399.6,98.1,399.4,98.1z"/>
<path class="st1" d="M162.9,57.3c-0.8,0-1.6,0.2-2.4,0.6L121,80.7c-1.5,0.9-2.4,2.5-2.4,4.2v45.7c0,1.7,0.9,3.3,2.4,4.1l39.6,22.8
	c1.5,0.9,3.3,0.9,4.8,0l39.6-22.8c1.5-0.9,2.4-2.4,2.4-4.1V84.9c0-1.7-0.9-3.3-2.4-4.2l-39.6-22.8C164.5,57.5,163.7,57.3,162.9,57.3
	z"/>
</svg>
