<?xml version="1.0" encoding="utf-8"?>
<!-- Generator: Adobe Illustrator 25.3.1, SVG Export Plug-In . SVG Version: 6.00 Build 0)  -->
<svg version="1.1" id="Layer_1" xmlns="http://www.w3.org/2000/svg" xmlns:xlink="http://www.w3.org/1999/xlink" x="0px" y="0px"
	 viewBox="0 0 556 98" style="enable-background:new 0 0 556 98;" xml:space="preserve">
<style type="text/css">
	.st0{fill-rule:evenodd;clip-rule:evenodd;}
	.st1{fill-rule:evenodd;clip-rule:evenodd;fill:#00C48D;}
</style>
<g>
	<path class="st0" d="M74.4,3.7c1,1.1,1.7,2.6,1.6,4.2v81.5c0,1.7-0.6,3.4-1.8,4.7C73,95.3,71.3,96,69.6,96c-1,0-2-0.2-3-0.5
		c-0.8-0.3-1.5-0.8-2.1-1.4L11.7,25.4V90c0.1,3.1-2.3,5.8-5.5,5.9c-0.2,0-0.3,0-0.5,0c-1.5,0-3-0.6-4-1.7C0.6,93.1,0,91.6,0,90.1
		V8.4C0,6.7,0.7,5,2,3.8C3.1,2.6,4.7,2,6.3,2c1,0,2.1,0.2,3,0.6c1,0.3,1.8,1,2.4,1.7l52.5,68.9V7.9c-0.1-3.1,2.3-5.8,5.5-5.9
		c0.2,0,0.3,0,0.5,0c1.5,0,3,0.5,4,1.7H74.4z M183.1,3.9c1.1,1.3,1.8,3,1.7,4.6v51.6c0.1,6.6-1.5,13.2-4.7,19
		c-3,5.6-7.5,10.2-13,13.3c-5.6,3.3-12,5-18.6,4.9c-6.5,0-13-1.6-18.8-4.8c-5.5-3.1-10-7.7-13-13.2c-3.2-5.9-4.8-12.4-4.7-19.1V8.6
		c0-1.7,0.6-3.4,2-4.6c2.6-2.5,6.7-2.5,9.3,0c1.2,1.2,1.9,2.8,1.9,4.6V60c-0.1,4.4,1,8.7,3.2,12.6c4.1,7.2,11.8,11.7,20.1,11.7
		c13.3,0.1,24-10.6,24.1-23.9c0-0.1,0-0.3,0-0.4V8.6c0-1.7,0.5-3.4,1.6-4.7c1.2-1.3,2.8-2,4.5-1.9C180.4,2,182,2.7,183.1,3.9
		L183.1,3.9z M287,85.7c0.8,1.1,1.2,2.4,1.1,3.8c0.1,1.7-0.6,3.4-1.9,4.6c-1.2,1.1-2.7,1.7-4.3,1.7c-2.1,0.1-4.1-1-5.3-2.7l-26-34.8
		L225,93.1c-1.1,1.8-3.1,2.8-5.2,2.8c-1.6,0-3-0.6-4.1-1.7c-1-1-1.7-2.4-1.7-3.8c0-1.6,0.6-3.2,1.6-4.4l27.6-37.5l-27.7-37.2
		c-2-2.5-1.8-6.2,0.5-8.4c1.9-2,4.9-2.5,7.4-1.2c1,0.4,1.8,1.1,2.4,2l25.8,34.6L277,4c1.1-1.7,3-2.8,5.1-3c1.6,0,3.2,0.8,4.3,2
		c1.1,1,1.8,2.5,1.9,4c0,1.5-0.5,2.8-1.4,4l-28,37.2l28,37.5H287z M383.5,3.7c1.2,1.1,2,2.8,1.9,4.5c0,1.7-0.7,3.3-2,4.4
		c-1.2,1.1-2.9,1.7-4.6,1.6H355v75.4c0,1.7-0.6,3.3-1.9,4.5c-2.8,2.5-7,2.5-9.8,0c-1.3-1.2-2-2.8-2-4.5V14.2h-23.8
		c-1.7,0-3.3-0.5-4.6-1.7c-1.3-1.2-1.9-2.8-1.9-4.5c0-1.6,0.6-3.2,1.8-4.3c1.3-1.2,3-1.8,4.6-1.7h61.4C380.5,2,382.2,2.5,383.5,3.7z
		"/>
	<path class="st1" d="M412.7,93.6c-4.3-2.4-8-6-10.5-10.3c-0.7-1-1.1-2.3-1.2-3.6c0-1.7,0.7-3.3,2-4.4c1.1-1.2,2.6-1.8,4.2-2
		c2.4,0.3,4.6,1.5,6,3.4c3,5,8.4,8,14.1,7.8c9.5,0.3,17.4-7.2,17.7-16.7c0-0.2,0-0.3,0-0.5V8.5c0-1.8,0.7-3.4,2-4.6
		c1.3-1.2,3-1.9,4.7-1.9c1.8,0,3.5,0.6,4.8,1.8c1.2,1.2,1.9,2.9,1.8,4.6v59c0.2,10.8-5.6,20.8-15,26
		C433.9,98.8,422.3,98.8,412.7,93.6L412.7,93.6z M505.2,94c-5.3-2-10.2-5-14.4-9c-1.7-1.3-2.7-3.3-2.8-5.4c0-1.7,0.7-3.3,2-4.4
		c1.1-1.2,2.7-1.9,4.3-1.9c1.5,0,2.8,0.5,3.9,1.5c3.2,3,7,5.5,11,7.3c4.2,1.6,8.6,2.4,13,2.4c5,0.1,10-1.2,14.3-4
		c3.5-2,5.8-5.7,5.8-9.8c0.1-4.3-2.1-8.4-5.8-10.8c-5.4-3.1-11.3-5.3-17.4-6.3c-9.2-2-16.3-5-21.3-9.3s-7.4-10.3-7.4-17.9
		c-0.1-5,1.3-9.9,4.2-14c2.9-4,6.8-7.2,11.4-9.2c10.4-4.1,21.9-4.3,32.4-0.5c4.5,1.5,8.6,3.9,12,7.1c1.8,1.4,3,3.5,3,5.7
		c0,1.6-0.6,3.2-1.8,4.3c-1.1,1.3-2.7,2-4.4,2c-1,0-2.2-0.4-3-1.1c-5.9-5.3-13.5-8.2-21.4-8.2c-5-0.3-10,1-14.3,3.6
		c-5.5,3.6-6.9,11-3.3,16.5c0.9,1.3,2,2.4,3.3,3.3c4.9,2.9,10.2,4.9,15.8,6c5.9,1.1,11.6,3,17.1,5.3c4.2,1.9,7.8,4.8,10.3,8.6
		c2.6,4.4,3.8,9.3,3.6,14.4c0.1,5-1.4,9.8-4.3,13.8c-3,4.2-7.2,7.4-12,9.4c-10.9,4.2-22.9,4.4-33.9,0.6H505.2z"/>
</g>
</svg>
