<?xml version="1.0" encoding="utf-8"?>
<svg viewBox="65.063 132.79 324.891 365.386" width="324.891" height="365.386" xmlns="http://www.w3.org/2000/svg">
  <g>
    <path fill="#E34F26" d="M 78.892 287.944 L 65.063 132.79 L 217.181 132.79 L 203.353 287.944 L 140.954 305.483" style=""/>
    <path fill="#EF652A" d="M 141.291 291.991 L 191.547 278.162 L 203.353 145.27 L 141.291 145.27" style=""/>
    <path fill="#EBEBEB" d="M 141.291 202.946 L 115.994 202.946 L 114.308 183.384 L 141.291 183.384 L 141.291 164.495 L 140.954 164.495 L 93.396 164.495 L 93.733 169.555 L 98.455 222.172 L 141.291 222.172 Z M 141.291 252.528 L 140.954 252.528 L 119.704 246.794 L 118.355 231.616 L 108.236 231.616 L 99.467 231.616 L 101.828 261.635 L 140.954 272.429 L 141.291 272.429 Z" style=""/>
    <path fill="#FFF" d="M 140.954 202.946 L 140.954 222.172 L 164.564 222.172 L 162.203 246.794 L 140.954 252.528 L 140.954 272.429 L 180.079 261.635 L 180.417 258.262 L 184.801 208.006 L 185.476 202.946 L 180.079 202.946 Z M 140.954 164.495 L 140.954 176.301 L 140.954 183.384 L 140.954 183.384 L 187.163 183.384 L 187.163 183.384 L 187.163 183.384 L 187.5 179.336 L 188.512 169.555 L 188.849 164.495 Z" style=""/>
  </g>
  <g transform="matrix(1, 0, 0, 1, -8.972957, 0)">
    <path d="M 260.512 288.22 L 246.655 132.79 L 398.927 132.79 L 385.055 288.195 L 322.698 305.483 Z" style="fill: rgb(12, 115, 184);"/>
    <path d="M 373.178 278.3 L 385.033 145.498 L 322.791 145.498 L 322.791 292.269 Z" style="fill: rgb(48, 169, 220);"/>
    <path fill="#ebebeb" d="M 278.424 203.145 L 280.132 222.208 L 322.791 222.208 L 322.791 203.145 Z M 276.723 183.625 L 322.791 183.625 L 322.791 164.562 L 274.99 164.562 Z M 322.791 252.654 L 322.707 252.676 L 301.476 246.943 L 300.12 231.74 L 280.983 231.74 L 283.654 261.671 L 322.703 272.511 L 322.791 272.487 Z" style=""/>
    <path fill="#fff" d="M 322.725 203.145 L 322.725 222.208 L 346.199 222.208 L 343.986 246.932 L 322.725 252.67 L 322.725 272.502 L 361.805 261.671 L 362.091 258.451 L 366.57 208.265 L 367.036 203.145 L 370.477 164.562 L 322.725 164.562 L 322.725 183.625 L 349.587 183.625 L 347.852 203.145 Z" style=""/>
  </g>
  <g transform="matrix(1, 0, 0, 1, -257.636017, 192.693008)">
    <rect width="172.693" height="172.693" fill="#f7df1e" x="398.927" y="132.79" style=""/>
    <path d="M 514.933 267.707 C 518.411 273.387 522.937 277.561 530.941 277.561 C 537.665 277.561 541.961 274.201 541.961 269.558 C 541.961 263.993 537.547 262.022 530.146 258.785 L 526.089 257.044 C 514.379 252.055 506.6 245.805 506.6 232.593 C 506.6 220.422 515.873 211.157 530.366 211.157 C 540.683 211.157 548.101 214.748 553.446 224.15 L 540.81 232.264 C 538.027 227.275 535.026 225.31 530.366 225.31 C 525.612 225.31 522.6 228.325 522.6 232.264 C 522.6 237.132 525.615 239.103 532.578 242.119 L 536.635 243.856 C 550.423 249.769 558.208 255.797 558.208 269.349 C 558.208 283.96 546.73 291.964 531.317 291.964 C 516.246 291.964 506.509 284.782 501.745 275.369 Z M 457.607 269.113 C 460.156 273.636 462.475 277.46 468.051 277.46 C 473.382 277.46 476.746 275.374 476.746 267.263 L 476.746 212.084 L 492.973 212.084 L 492.973 267.482 C 492.973 284.286 483.122 291.934 468.742 291.934 C 455.748 291.934 448.224 285.209 444.397 277.111 Z" style=""/>
  </g>
</svg>