<svg xmlns="http://www.w3.org/2000/svg" viewBox="0 0 549.78 110.91"><defs><style>.a{fill:#9c5c8f;}.a,.b,.c{fill-rule:evenodd;}.b{fill:#fff;}</style></defs><path class="a" d="M1.38,10.55A17.31,17.31,0,0,1,17.05,0Q92.82,0,168.56,0a17.39,17.39,0,0,1,17.71,17.72c0,19.36,0,38.71,0,58.07a17.38,17.38,0,0,1-16.42,16.8c-18.41.08-36.84,0-55.26,0,2.48,6.1,5,12.19,7.45,18.29-11-6-21.83-12.29-32.86-18.21-24.23-.21-48.48,0-72.71-.12C7.71,92.34.1,84.53.05,75.81,0,56.86.05,37.9,0,18.94a19.41,19.41,0,0,1,1.37-8.39Z"/><path class="b" d="M75.46,12c2.79-3,8.1-2,10.17,1.35a6.38,6.38,0,0,1,.32,6c-3.9,7.65-5.52,16.18-7,24.56-1.77,10.93-3.24,22-2.67,33.09.16,2.83-1.21,6.27-4.24,6.93-2.87.64-5.49-1.24-7.29-3.27-8.25-8.87-12.92-20.36-16.28-31.83C45,55.52,41.63,62.24,38.33,69c-2.31,4.57-4.75,9.24-8.44,12.87-1.55,1.55-4.19,3-6.2,1.36-3-2.65-3.77-6.86-5.05-10.48C13.77,56,11,38.66,8.18,21.43c-.65-2.87.56-6.31,3.42-7.46,2.32-.87,5.28-1,7.26.71,1.37,1.23,1.75,3.13,2,4.87,2,13.33,4.35,26.63,7.56,39.72q8.28-15.68,16.5-31.4a10.36,10.36,0,0,1,3.3-4,5.4,5.4,0,0,1,6.67.61c1.42,1.48,1.89,3.53,2.28,5.48a140.34,140.34,0,0,0,7.1,25.43C65.67,43,67.37,30.48,71.89,18.8c1-2.35,1.92-4.84,3.57-6.83Zm31,6.62a19.09,19.09,0,0,1,16.39,5.76,25.06,25.06,0,0,1,5.77,13.48,41.37,41.37,0,0,1-4.53,24.52c-2.28,4.24-5.26,8.31-9.47,10.8a19.42,19.42,0,0,1-20.36-.67c-4.76-3.25-7.43-8.8-8.51-14.33-2.19-12.51,1.55-26.46,11-35.19a18.3,18.3,0,0,1,9.69-4.37Zm1.24,12.87c-2.86.95-4.66,3.56-6.19,6-3.84,6.19-5,14.35-1.86,21.08.81,1.78,2.12,3.64,4.17,4s4.23-.89,5.82-2.25c3.51-3,5.26-7.54,6.11-12,.95-5.06.46-10.66-2.51-15a4.85,4.85,0,0,0-5.54-1.86Zm46.4-12.86c5.8-.72,12.1,1.07,16.16,5.4a25,25,0,0,1,6.16,14.44A41.27,41.27,0,0,1,172,62.12c-2.3,4.36-5.35,8.55-9.68,11.08a19.48,19.48,0,0,1-19.58-.27c-4-2.38-6.59-6.45-8.1-10.73a39.27,39.27,0,0,1,8.92-38.34,18.69,18.69,0,0,1,10.6-5.26Zm1.26,12.88c-3.12,1.11-5,4.08-6.6,6.78-3.51,6.19-4.37,14.15-1.2,20.64.85,1.8,2.37,3.6,4.51,3.7,2.34.09,4.35-1.39,6-2.92,3.52-3.47,5.13-8.44,5.7-13.26A19,19,0,0,0,161,33.27a4.85,4.85,0,0,0-5.58-1.79Z"/><path class="c" d="M217.64,20.32a35.09,35.09,0,0,1,15.43.2c0,4.13,0,8.25,0,12.38-4.13-1-8.76-1.94-12.77,0-4.8,2.35-7.42,7.75-7.47,13-.27,5.17,1.46,10.93,6,13.84,4.21,2.79,9.58,2.19,14.2.87,0,4.12,0,8.24,0,12.37a30.14,30.14,0,0,1-18.75-.67,25.21,25.21,0,0,1-15-16.19,33.71,33.71,0,0,1-.52-17.24,25.46,25.46,0,0,1,18.88-18.51Zm37.21-.61c6.24-.7,13,.26,18,4.25,4.86,3.77,7.28,9.85,8.13,15.79a45.12,45.12,0,0,1-1.35,19.54C278,64.63,274.39,69.56,269.24,72s-11.36,2.63-16.93,1.38A19,19,0,0,1,240,64.14c-3.55-6.23-4.19-13.64-3.92-20.68.29-6.07,1.83-12.4,5.91-17.08a19.71,19.71,0,0,1,12.84-6.67Zm1.92,11.82c-2.67.68-4.19,3.32-4.86,5.81-1.33,4.91-1.1,10.09-.76,15.12.32,2.72.61,5.73,2.55,7.85,2.57,2.92,7.74,2.53,10.1-.47,1.57-1.92,2-4.44,2.33-6.82a47.56,47.56,0,0,0,0-12.78c-.45-2.53-1.15-5.21-3-7.1a6.62,6.62,0,0,0-6.33-1.61Zm244.39-11a35.27,35.27,0,0,1,16.22-.05c.12,4.14,0,8.28,0,12.42-4-1-8.52-1.89-12.48-.14-4.56,2.08-7.32,7-7.68,11.85-.56,5.47,1,11.76,5.78,15,4.22,2.91,9.7,2.34,14.38,1,0,4.15.12,8.31-.1,12.46a30.67,30.67,0,0,1-19.81-1.23A25.26,25.26,0,0,1,483.46,55.5a33.8,33.8,0,0,1-.29-17,25.47,25.47,0,0,1,18-18Zm-211.91.41q8.83,0,17.68,0c2.13,9.55,4.16,19.14,5.93,28.77,1.69-9.67,3.95-19.23,6.23-28.77h18.13q3.52,25.95,7,51.89H330.36c-1.28-11.85-2.42-23.71-3.77-35.54C323.78,49.14,320.83,61,318,72.82c-3.16,0-6.31,0-9.47,0-3-11.87-6-23.75-9-35.61Q297.67,55,295.88,72.82c-4.41,0-8.84,0-13.25,0q3.3-25.95,6.62-51.88Zm63.41,0c5.9,0,11.79,0,17.69,0,2.13,9.54,4.14,19.11,5.92,28.72,1.71-9.65,4-19.2,6.24-28.73h18.06q3.51,25.95,7,51.89c-4.62,0-9.24,0-13.86,0C392.43,61,391.23,49.13,390,37.27c-2.88,11.85-5.71,23.71-8.6,35.55h-9.44q-4.55-17.8-9.05-35.64c-1.21,11.88-2.37,23.76-3.58,35.64H346q3.3-25.95,6.62-51.89Zm58.85.17c9.47-.21,18.94,0,28.41-.09,0,3.69,0,7.36,0,11.05-4.78,0-9.56,0-14.33,0,0,3.16,0,6.33,0,9.49H438c0,3.58,0,7.16,0,10.74h-12.4q0,4.75,0,9.5H440c0,3.68,0,7.36,0,11.05H411.6c-.06-17.27.1-34.54-.09-51.8Zm32.5-.17c5.93,0,11.86-.05,17.78,0,5.59.18,11.5,1.57,15.67,5.52a14.07,14.07,0,0,1,3.61,14.08,14.5,14.5,0,0,1-7.84,8.91c3.71,7.79,7.46,15.55,11.16,23.34H469.61C465.74,64.88,462,56.87,458.08,49c-.1,7.95,0,15.9,0,23.86H444V20.93Zm14,10q0,6.18,0,12.38c2.54-.17,5.29-.27,7.45-1.81,2.48-1.79,2.21-5.62.65-7.93-1.94-2.37-5.3-2.41-8.1-2.64Zm63.39-10c9.45,0,18.9,0,28.35,0,0,3.69,0,7.38,0,11.07H535.33q0,4.74,0,9.48c4.14,0,8.27,0,12.41,0V52.26h-12.4q0,4.74,0,9.5h14.45q0,5.52,0,11h-28.4q0-25.93,0-51.87Z"/></svg>