<svg xmlns="http://www.w3.org/2000/svg" viewBox="0 0 1680 360"><defs><style type="text/css">.a{fill:#32373c}</style></defs><path class="a" d="M954.5 135.3H887v7.2c21 0 24.4 4.5 24.4 31.2V222c0 26.8-3.3 31.7-24.4 31.7-16.2-2.3-27.2-11-42.2-27.5l-17.3-18.9c23.3-4.1 35.7-18.8 35.7-35.4 0-20.7-17.7-36.5-50.8-36.5h-66.3v7.1c21 0 24.5 4.6 24.5 31.3V222c0 26.8-3.4 31.7-24.5 31.7v7.1h75v-7.1c-21.1 0-24.5-5-24.5-31.7v-13.5h6.4l41.8 52.3h109.6c53.8 0 77.2-28.6 77.2-62.9s-23.4-62.5-77.2-62.5zm-157.8 61.4v-50.1H812c17 0 24.5 11.7 24.5 25.2 0 13.2-7.5 24.9-24.5 24.9zm159 52.3H953c-13.6 0-15.5-3.3-15.5-20.7v-81.7h18.1c39.2 0 46.3 28.6 46.3 50.8 0 23-7.1 51.6-46.3 51.6zM536.4 210.6l26-76.8c7.5-22.2 4.2-28.6-20-28.6v-7.6h70.9v7.6c-23.8 0-29.4 5.6-38.8 33.1l-43 128.8h-4.9l-38.4-117.9-39.2 118h-4.9l-41.8-128.9c-9-27.5-15-33.1-36.9-33.1v-7.6H449v7.6c-22.2 0-28.2 5.2-20.3 28.6l25.2 76.8 38-113h7.2zM664.5 265.6c-41.5 0-75.4-30.5-75.4-67.8 0-36.9 34-67.4 75.4-67.4s75.3 30.5 75.3 67.4c0 37.3-33.9 67.8-75.3 67.8zm0-123.5c-34.7 0-46.7 31.2-46.7 55.7 0 24.9 12 55.8 46.7 55.8 35 0 47-31 47-55.8 0-24.5-12-55.7-47-55.7zM1124.7 253.2v7.5h-86.2v-7.5c25.2 0 29.7-6.4 29.7-44v-60.3c0-37.7-4.5-43.7-29.7-43.7v-7.6h78c38.7 0 60.2 20 60.2 46.7 0 26-21.5 46.4-60.3 46.4H1095V209c0 37.7 4.5 44 29.7 44zm-8.3-142H1095v65.5h21.4c21.1 0 31-14.7 31-32.4 0-18-9.9-33.1-31-33.1zM1435.4 225.3l-1.8 6.8c-3.4 12.4-7.6 17-34.3 17h-5.3c-19.6 0-23-4.6-23-31.3v-17.3c29.4 0 31.7 2.6 31.7 22.2h7.1v-56.1h-7.1c0 19.5-2.3 22.2-31.7 22.2v-42.2h20.7c26.8 0 31 4.5 34.3 17l2 7.1h6l-2.7-35.4h-110.7v7.2c21 0 24.4 4.5 24.4 31.2V222c0 24.5-2.8 30.7-19.5 31.5-15.8-2.4-26.6-11-41.5-27.3l-17.3-18.9c23.4-4.1 35.8-18.8 35.8-35.4 0-20.7-17.7-36.5-50.9-36.5h-66.2v7.2c21 0 24.4 4.5 24.4 31.2V222c0 26.8-3.4 31.7-24.4 31.7v7.1h75v-7.1c-21.2 0-24.6-5-24.6-31.7v-13.5h6.4l41.8 52.3h154.8l2.3-35.4zm-199.6-28.6v-50.1h15.5c17 0 24.5 11.7 24.5 25.2 0 13.2-7.6 24.9-24.5 24.9zM1511.9 265.6c-15 0-28.3-7.9-33.9-12.8a27 27 0 0 0-6 12.8h-7.2v-52h7.6c3 24.9 20.3 39.6 42.5 39.6 12 0 21.9-6.8 21.9-18.1 0-9.8-8.7-17.3-24.1-24.5l-21.5-10.1c-15-7.2-26.4-19.6-26.4-36.2 0-18 17-33.5 40.3-33.5 12.4 0 23 4.5 29.4 9.8 1.9-1.5 3.8-5.7 4.9-10.2h7.1v44.4h-7.9c-2.6-17.7-12.4-32.4-32.3-32.4-10.6 0-20.4 6-20.4 15.5 0 9.8 8 15 26 23.3l20.7 10.2c18 8.7 25.2 22.6 25.2 34 0 23.6-20.7 40.2-45.9 40.2zM1625.8 265.6c-15 0-28.3-7.9-34-12.8a27 27 0 0 0-6 12.8h-7.1v-52h7.5c3 24.9 20.4 39.6 42.6 39.6 12 0 21.8-6.8 21.8-18.1 0-9.8-8.6-17.3-24-24.5l-21.5-10.1c-15.1-7.2-26.4-19.6-26.4-36.2 0-18 17-33.5 40.3-33.5 12.4 0 23 4.5 29.4 9.8 1.9-1.5 3.7-5.7 4.9-10.2h7.1v44.4h-7.9c-2.6-17.7-12.4-32.4-32.4-32.4-10.5 0-20.3 6-20.3 15.5 0 9.8 7.9 15 26 23.3l20.7 10.2c18 8.7 25.2 22.6 25.2 34 0 23.6-20.7 40.2-46 40.2zM179 19.7a158.5 158.5 0 0 1 89 27.2 159.8 159.8 0 0 1 57.8 70A159 159 0 0 1 311 268.2a159.8 159.8 0 0 1-70.1 57.7A159.1 159.1 0 0 1 90 311 159.8 159.8 0 0 1 32.1 241 159.1 159.1 0 0 1 46.9 90a159.8 159.8 0 0 1 70-57.8 158.3 158.3 0 0 1 62-12.5m0-10.2A169.5 169.5 0 1 0 348.6 179 169.5 169.5 0 0 0 179 9.5z"/><path class="a" d="M37.7 179a141.3 141.3 0 0 0 79.6 127L50 121.6A140.7 140.7 0 0 0 37.7 179zm236.6-7.1c0-17.5-6.2-29.6-11.6-39-7.2-11.6-13.9-21.5-13.9-33.1 0-13 9.9-25 23.7-25h1.9A141.2 141.2 0 0 0 61 101.4l9 .2c14.8 0 37.7-1.8 37.7-1.8 7.6-.5 8.5 10.7.9 11.6 0 0-7.6 1-16.2 1.4l51.5 153 30.9-92.8-22-60.2c-7.6-.5-14.8-1.4-14.8-1.4-7.6-.4-6.7-12 .9-11.6 0 0 23.3 1.8 37.2 1.8 14.7 0 37.6-1.8 37.6-1.8 7.6-.5 8.5 10.7 1 11.6 0 0-7.7 1-16.2 1.4l51 151.8 14.6-46.2c6.4-20.2 10.2-34.5 10.2-46.5zm-92.8 19.4L139 314.5a141.3 141.3 0 0 0 86.8-2.3 12.8 12.8 0 0 1-1-2zm121.4-80a108.4 108.4 0 0 1 1 14.4c0 14.4-2.7 30.5-10.8 50.6L250 301.1a141.3 141.3 0 0 0 53-189.9z"/></svg>